<?xml version="1.0" encoding="utf-8"?>
<!-- Generator: Adobe Illustrator 18.0.0, SVG Export Plug-In . SVG Version: 6.00 Build 0)  -->
<!DOCTYPE svg PUBLIC "-//W3C//DTD SVG 1.1//EN" "http://www.w3.org/Graphics/SVG/1.1/DTD/svg11.dtd">
<svg version="1.1" xmlns="http://www.w3.org/2000/svg" xmlns:xlink="http://www.w3.org/1999/xlink" x="0px" y="0px"
	 viewBox="0 0 800 800" enable-background="new 0 0 800 800" xml:space="preserve">
<g id="background">
	<rect fill="#99CCCC" width="800" height="800"/>
</g>
<g id="objects">
	<g>
		<path fill="#FFFFFF" d="M293.4,161.8c2.3,0,4.4,0.9,6,2.3c2.4-4.4,7-7.4,12.4-7.4c2.9,0,5.7,0.9,7.9,2.5
			c3.9-6.5,11.1-10.8,19.2-10.8c7.3,0,13.7,3.4,17.8,8.8c1.1-0.3,2.2-0.4,3.3-0.4c7.8,0,14.1,6.3,14.1,14.1h-89.6
			C284.5,165.8,288.5,161.8,293.4,161.8z"/>
		<path fill="#DCDCDC" d="M493,134.4c4.2,0,8.1,1.6,11,4.2c4.4-8.2,13-13.7,23-13.7c5.5,0,10.5,1.7,14.7,4.5
			c7.3-12,20.5-20.1,35.6-20.1c13.4,0,25.4,6.4,33,16.3c2-0.5,4-0.8,6.1-0.8c14.4,0,26.1,11.7,26.1,26.1h-166
			C476.4,141.8,483.9,134.4,493,134.4z"/>
		<path fill="#FFFFFF" d="M608.9,150.6c2.3,0,4.4,0.9,5.9,2.3c2.4-4.4,7-7.4,12.4-7.4c2.9,0,5.7,0.9,7.9,2.5
			c3.9-6.5,11.1-10.8,19.2-10.8c7.3,0,13.7,3.4,17.8,8.8c1.1-0.3,2.2-0.4,3.3-0.4c7.8,0,14.1,6.3,14.1,14.1h-89.6
			C599.9,154.6,603.9,150.6,608.9,150.6z"/>
		<path fill="#FFFFFF" d="M542.9,184.3c-4.2,0-8.1,1.6-11,4.2c-4.4-8.2-13-13.7-23-13.7c-5.5,0-10.5,1.7-14.7,4.5
			c-7.3-12-20.5-20.1-35.6-20.1c-13.4,0-25.4,6.4-33,16.3c-2-0.5-4-0.8-6.1-0.8c-14.4,0-26.1,11.7-26.1,26.1h166
			C559.5,191.8,552,184.3,542.9,184.3z"/>
		<g>
			<g>
				<polygon fill="#FF7845" points="220.4,112.5 220.4,112.5 220.4,112.5 				"/>
			</g>
		</g>
	</g>
	<g>
		<defs>
			<rect id="SVGID_1_" y="606" width="800" height="193.3"/>
		</defs>
		<clipPath id="SVGID_2_">
			<use xlink:href="#SVGID_1_"  overflow="visible"/>
		</clipPath>
		<g clip-path="url(#SVGID_2_)">
			<g>
				<path fill="#69E2DE" d="M774.6,685.9c-10,0-15.6-4.2-19.4-7c-2.8-2.1-4-3-7.4-3c-3.4,0-4.5,0.9-7.4,3c-3.7,2.8-9.4,7-19.4,7
					c-10,0-15.6-4.2-19.4-7c-2.8-2.1-4-3-7.4-3c-3.4,0-4.5,0.9-7.4,3c-3.7,2.8-9.4,7-19.4,7c-10,0-15.6-4.2-19.4-7
					c-2.8-2.1-4-3-7.4-3c-3.4,0-4.5,0.9-7.4,3c-3.7,2.8-9.4,7-19.4,7c-10,0-15.6-4.2-19.4-7c-2.8-2.1-4-3-7.4-3
					c-3.4,0-4.5,0.9-7.4,3c-3.7,2.8-9.4,7-19.4,7c-10,0-15.6-4.2-19.4-7c-2.8-2.1-4-3-7.4-3c-3.4,0-4.5,0.9-7.4,3
					c-3.7,2.8-9.4,7-19.4,7c-10,0-15.6-4.2-19.4-7c-2.8-2.1-4-3-7.4-3c-3.4,0-4.5,0.9-7.4,3c-3.7,2.8-9.4,7-19.4,7
					c-10,0-15.6-4.2-19.4-7c-2.8-2.1-4-3-7.4-3c-3.4,0-4.5,0.9-7.4,3c-3.7,2.8-9.4,7-19.4,7s-15.6-4.2-19.4-7c-2.8-2.1-4-3-7.4-3
					c-3.4,0-4.5,0.9-7.4,3c-3.7,2.8-9.4,7-19.4,7c-10,0-15.6-4.2-19.4-7c-2.8-2.1-4-3-7.4-3c-3.4,0-4.5,0.9-7.4,3
					c-3.7,2.8-9.4,7-19.4,7c-10,0-15.6-4.2-19.4-7c-2.8-2.1-4-3-7.4-3c-3.4,0-4.5,0.9-7.4,3c-3.7,2.8-9.4,7-19.4,7
					c-10,0-15.6-4.2-19.4-7c-2.8-2.1-4-3-7.4-3c-3.4,0-4.5,0.9-7.4,3c-3.7,2.8-9.4,7-19.4,7c-10,0-15.6-4.2-19.4-7
					c-2.8-2.1-4-3-7.4-3c-3.4,0-4.5,0.9-7.4,3c-3.7,2.8-9.4,7-19.4,7c-10,0-15.6-4.2-19.4-7c-2.8-2.1-4-3-7.4-3
					c-3.4,0-4.5,0.9-7.4,3c-3.7,2.8-9.4,7-19.4,7c-10,0-15.6-4.2-19.4-7c-2.8-2.1-4-3-7.4-3c-3.4,0-4.5,0.9-7.4,3
					c-3.7,2.8-9.4,7-19.4,7c-10,0-15.6-4.2-19.4-7c-2.8-2.1-4-3-7.4-3c-5.5,0-10-4.5-10-10c0-5.5,4.5-10,10-10c10,0,15.6,4.2,19.4,7
					c2.8,2.1,4,3,7.4,3c3.4,0,4.5-0.9,7.4-3c3.7-2.8,9.4-7,19.4-7c10,0,15.6,4.2,19.4,7c2.8,2.1,4,3,7.4,3c3.4,0,4.5-0.9,7.4-3
					c3.7-2.8,9.4-7,19.4-7c10,0,15.6,4.2,19.4,7c2.8,2.1,4,3,7.4,3c3.4,0,4.5-0.9,7.4-3c3.7-2.8,9.4-7,19.4-7c10,0,15.6,4.2,19.4,7
					c2.8,2.1,4,3,7.4,3c3.4,0,4.5-0.9,7.4-3c3.7-2.8,9.4-7,19.4-7c10,0,15.6,4.2,19.4,7c2.8,2.1,4,3,7.4,3c3.4,0,4.5-0.9,7.4-3
					c3.7-2.8,9.4-7,19.4-7c10,0,15.6,4.2,19.4,7c2.8,2.1,4,3,7.4,3c3.4,0,4.5-0.9,7.4-3c3.7-2.8,9.4-7,19.4-7c10,0,15.6,4.2,19.4,7
					c2.8,2.1,4,3,7.4,3c3.4,0,4.5-0.9,7.4-3c3.7-2.8,9.4-7,19.4-7c10,0,15.6,4.2,19.4,7c2.8,2.1,4,3,7.4,3c3.4,0,4.5-0.9,7.4-3
					c3.7-2.8,9.4-7,19.4-7c10,0,15.6,4.2,19.4,7c2.8,2.1,4,3,7.4,3c3.4,0,4.5-0.9,7.4-3c3.7-2.8,9.4-7,19.4-7c10,0,15.6,4.2,19.4,7
					c2.8,2.1,4,3,7.4,3c3.4,0,4.5-0.9,7.4-3c3.7-2.8,9.4-7,19.4-7c10,0,15.6,4.2,19.4,7c2.8,2.1,4,3,7.4,3c3.4,0,4.5-0.9,7.4-3
					c3.7-2.8,9.4-7,19.4-7c10,0,15.6,4.2,19.4,7c2.8,2.1,4,3,7.4,3c3.4,0,4.5-0.9,7.4-3c3.7-2.8,9.4-7,19.4-7c10,0,15.6,4.2,19.4,7
					c2.8,2.1,4,3,7.4,3c3.4,0,4.5-0.9,7.4-3c3.7-2.8,9.4-7,19.4-7c10,0,15.6,4.2,19.4,7c2.8,2.1,4,3,7.4,3c3.4,0,4.5-0.9,7.4-3
					c3.7-2.8,9.4-7,19.4-7c10,0,15.6,4.2,19.4,7c2.8,2.1,4,3,7.4,3c3.4,0,4.5-0.9,7.4-3c3.7-2.8,9.4-7,19.4-7c5.5,0,10,4.5,10,10
					c0,5.5-4.5,10-10,10c-3.4,0-4.5,0.9-7.4,3C790.3,681.7,784.6,685.9,774.6,685.9z"/>
			</g>
			<g>
				<path fill="#00BEC5" d="M772.6,704.9c-10,0-15.6-4.2-19.4-7c-2.8-2.1-4-3-7.4-3c-3.4,0-4.5,0.9-7.4,3c-3.7,2.8-9.4,7-19.4,7
					c-10,0-15.6-4.2-19.4-7c-2.8-2.1-4-3-7.4-3c-3.4,0-4.5,0.9-7.4,3c-3.7,2.8-9.4,7-19.4,7c-10,0-15.6-4.2-19.4-7
					c-2.8-2.1-4-3-7.4-3c-3.4,0-4.5,0.9-7.4,3c-3.7,2.8-9.4,7-19.4,7c-10,0-15.6-4.2-19.4-7c-2.8-2.1-4-3-7.4-3
					c-3.4,0-4.5,0.9-7.4,3c-3.7,2.8-9.4,7-19.4,7c-10,0-15.6-4.2-19.4-7c-2.8-2.1-4-3-7.4-3c-3.4,0-4.5,0.9-7.4,3
					c-3.7,2.8-9.4,7-19.4,7c-10,0-15.6-4.2-19.4-7c-2.8-2.1-4-3-7.4-3c-3.4,0-4.5,0.9-7.4,3c-3.7,2.8-9.4,7-19.4,7
					c-10,0-15.6-4.2-19.4-7c-2.8-2.1-4-3-7.4-3c-3.4,0-4.5,0.9-7.4,3c-3.7,2.8-9.4,7-19.4,7s-15.6-4.2-19.4-7c-2.8-2.1-4-3-7.4-3
					c-3.4,0-4.5,0.9-7.4,3c-3.7,2.8-9.4,7-19.4,7c-10,0-15.6-4.2-19.4-7c-2.8-2.1-4-3-7.4-3c-3.4,0-4.5,0.9-7.4,3
					c-3.7,2.8-9.4,7-19.4,7c-10,0-15.6-4.2-19.4-7c-2.8-2.1-4-3-7.4-3c-3.4,0-4.5,0.9-7.4,3c-3.7,2.8-9.4,7-19.4,7
					c-10,0-15.6-4.2-19.4-7c-2.8-2.1-4-3-7.4-3c-3.4,0-4.5,0.9-7.4,3c-3.7,2.8-9.4,7-19.4,7c-10,0-15.6-4.2-19.4-7
					c-2.8-2.1-4-3-7.4-3c-3.4,0-4.5,0.9-7.4,3c-3.7,2.8-9.4,7-19.4,7c-10,0-15.6-4.2-19.4-7c-2.8-2.1-4-3-7.4-3
					c-3.4,0-4.5,0.9-7.4,3c-3.7,2.8-9.4,7-19.4,7c-10,0-15.6-4.2-19.4-7c-2.8-2.1-4-3-7.4-3c-3.4,0-4.5,0.9-7.4,3
					c-3.7,2.8-9.4,7-19.4,7c-10,0-15.6-4.2-19.4-7c-2.8-2.1-4-3-7.4-3c-5.5,0-10-4.5-10-10c0-5.5,4.5-10,10-10c10,0,15.6,4.2,19.4,7
					c2.8,2.1,4,3,7.4,3c3.4,0,4.5-0.9,7.4-3c3.7-2.8,9.4-7,19.4-7c10,0,15.6,4.2,19.4,7c2.8,2.1,4,3,7.4,3c3.4,0,4.5-0.9,7.4-3
					c3.7-2.8,9.4-7,19.4-7c10,0,15.6,4.2,19.4,7c2.8,2.1,4,3,7.4,3c3.4,0,4.5-0.9,7.4-3c3.7-2.8,9.4-7,19.4-7c10,0,15.6,4.2,19.4,7
					c2.8,2.1,4,3,7.4,3c3.4,0,4.5-0.9,7.4-3c3.7-2.8,9.4-7,19.4-7c10,0,15.6,4.2,19.4,7c2.8,2.1,4,3,7.4,3c3.4,0,4.5-0.9,7.4-3
					c3.7-2.8,9.4-7,19.4-7c10,0,15.6,4.2,19.4,7c2.8,2.1,4,3,7.4,3c3.4,0,4.5-0.9,7.4-3c3.7-2.8,9.4-7,19.4-7c10,0,15.6,4.2,19.4,7
					c2.8,2.1,4,3,7.4,3c3.4,0,4.5-0.9,7.4-3c3.7-2.8,9.4-7,19.4-7c10,0,15.6,4.2,19.4,7c2.8,2.1,4,3,7.4,3c3.4,0,4.5-0.9,7.4-3
					c3.7-2.8,9.4-7,19.4-7c10,0,15.6,4.2,19.4,7c2.8,2.1,4,3,7.4,3c3.4,0,4.5-0.9,7.4-3c3.7-2.8,9.4-7,19.4-7c10,0,15.6,4.2,19.4,7
					c2.8,2.1,4,3,7.4,3c3.4,0,4.5-0.9,7.4-3c3.7-2.8,9.4-7,19.4-7c10,0,15.6,4.2,19.4,7c2.8,2.1,4,3,7.4,3c3.4,0,4.5-0.9,7.4-3
					c3.7-2.8,9.4-7,19.4-7c10,0,15.6,4.2,19.4,7c2.8,2.1,4,3,7.4,3c3.4,0,4.5-0.9,7.4-3c3.7-2.8,9.4-7,19.4-7c10,0,15.6,4.2,19.4,7
					c2.8,2.1,4,3,7.4,3c3.4,0,4.5-0.9,7.4-3c3.7-2.8,9.4-7,19.4-7c10,0,15.6,4.2,19.4,7c2.8,2.1,4,3,7.4,3c3.4,0,4.5-0.9,7.4-3
					c3.7-2.8,9.4-7,19.4-7c10,0,15.6,4.2,19.4,7c2.8,2.1,4,3,7.4,3c3.4,0,4.5-0.9,7.4-3c3.7-2.8,9.4-7,19.4-7c5.5,0,10,4.5,10,10
					c0,5.5-4.5,10-10,10c-3.4,0-4.5,0.9-7.4,3C788.3,700.7,782.6,704.9,772.6,704.9z"/>
			</g>
			<g>
				<path fill="#69E2DE" d="M774.6,724.1c-10,0-15.6-4.2-19.4-7c-2.8-2.1-4-3-7.4-3c-3.4,0-4.5,0.9-7.4,3c-3.7,2.8-9.4,7-19.4,7
					c-10,0-15.6-4.2-19.4-7c-2.8-2.1-4-3-7.4-3c-3.4,0-4.5,0.9-7.4,3c-3.7,2.8-9.4,7-19.4,7c-10,0-15.6-4.2-19.4-7
					c-2.8-2.1-4-3-7.4-3c-3.4,0-4.5,0.9-7.4,3c-3.7,2.8-9.4,7-19.4,7c-10,0-15.6-4.2-19.4-7c-2.8-2.1-4-3-7.4-3
					c-3.4,0-4.5,0.9-7.4,3c-3.7,2.8-9.4,7-19.4,7c-10,0-15.6-4.2-19.4-7c-2.8-2.1-4-3-7.4-3c-3.4,0-4.5,0.9-7.4,3
					c-3.7,2.8-9.4,7-19.4,7c-10,0-15.6-4.2-19.4-7c-2.8-2.1-4-3-7.4-3c-3.4,0-4.5,0.9-7.4,3c-3.7,2.8-9.4,7-19.4,7
					c-10,0-15.6-4.2-19.4-7c-2.8-2.1-4-3-7.4-3c-3.4,0-4.5,0.9-7.4,3c-3.7,2.8-9.4,7-19.4,7s-15.6-4.2-19.4-7c-2.8-2.1-4-3-7.4-3
					c-3.4,0-4.5,0.9-7.4,3c-3.7,2.8-9.4,7-19.4,7c-10,0-15.6-4.2-19.4-7c-2.8-2.1-4-3-7.4-3c-3.4,0-4.5,0.9-7.4,3
					c-3.7,2.8-9.4,7-19.4,7c-10,0-15.6-4.2-19.4-7c-2.8-2.1-4-3-7.4-3c-3.4,0-4.5,0.9-7.4,3c-3.7,2.8-9.4,7-19.4,7
					c-10,0-15.6-4.2-19.4-7c-2.8-2.1-4-3-7.4-3c-3.4,0-4.5,0.9-7.4,3c-3.7,2.8-9.4,7-19.4,7c-10,0-15.6-4.2-19.4-7
					c-2.8-2.1-4-3-7.4-3c-3.4,0-4.5,0.9-7.4,3c-3.7,2.8-9.4,7-19.4,7c-10,0-15.6-4.2-19.4-7c-2.8-2.1-4-3-7.4-3
					c-3.4,0-4.5,0.9-7.4,3c-3.7,2.8-9.4,7-19.4,7c-10,0-15.6-4.2-19.4-7c-2.8-2.1-4-3-7.4-3c-3.4,0-4.5,0.9-7.4,3
					c-3.7,2.8-9.4,7-19.4,7c-10,0-15.6-4.2-19.4-7c-2.8-2.1-4-3-7.4-3c-5.5,0-10-4.5-10-10s4.5-10,10-10c10,0,15.6,4.2,19.4,7
					c2.8,2.1,4,3,7.4,3c3.4,0,4.5-0.9,7.4-3c3.7-2.8,9.4-7,19.4-7c10,0,15.6,4.2,19.4,7c2.8,2.1,4,3,7.4,3c3.4,0,4.5-0.9,7.4-3
					c3.7-2.8,9.4-7,19.4-7c10,0,15.6,4.2,19.4,7c2.8,2.1,4,3,7.4,3c3.4,0,4.5-0.9,7.4-3c3.7-2.8,9.4-7,19.4-7c10,0,15.6,4.2,19.4,7
					c2.8,2.1,4,3,7.4,3c3.4,0,4.5-0.9,7.4-3c3.7-2.8,9.4-7,19.4-7c10,0,15.6,4.2,19.4,7c2.8,2.1,4,3,7.4,3c3.4,0,4.5-0.9,7.4-3
					c3.7-2.8,9.4-7,19.4-7c10,0,15.6,4.2,19.4,7c2.8,2.1,4,3,7.4,3c3.4,0,4.5-0.9,7.4-3c3.7-2.8,9.4-7,19.4-7c10,0,15.6,4.2,19.4,7
					c2.8,2.1,4,3,7.4,3c3.4,0,4.5-0.9,7.4-3c3.7-2.8,9.4-7,19.4-7c10,0,15.6,4.2,19.4,7c2.8,2.1,4,3,7.4,3c3.4,0,4.5-0.9,7.4-3
					c3.7-2.8,9.4-7,19.4-7c10,0,15.6,4.2,19.4,7c2.8,2.1,4,3,7.4,3c3.4,0,4.5-0.9,7.4-3c3.7-2.8,9.4-7,19.4-7c10,0,15.6,4.2,19.4,7
					c2.8,2.1,4,3,7.4,3c3.4,0,4.5-0.9,7.4-3c3.7-2.8,9.4-7,19.4-7c10,0,15.6,4.2,19.4,7c2.8,2.1,4,3,7.4,3c3.4,0,4.5-0.9,7.4-3
					c3.7-2.8,9.4-7,19.4-7c10,0,15.6,4.2,19.4,7c2.8,2.1,4,3,7.4,3c3.4,0,4.5-0.9,7.4-3c3.7-2.8,9.4-7,19.4-7c10,0,15.6,4.2,19.4,7
					c2.8,2.1,4,3,7.4,3c3.4,0,4.5-0.9,7.4-3c3.7-2.8,9.4-7,19.4-7c10,0,15.6,4.2,19.4,7c2.8,2.1,4,3,7.4,3c3.4,0,4.5-0.9,7.4-3
					c3.7-2.8,9.4-7,19.4-7c10,0,15.6,4.2,19.4,7c2.8,2.1,4,3,7.4,3c3.4,0,4.5-0.9,7.4-3c3.7-2.8,9.4-7,19.4-7c5.5,0,10,4.5,10,10
					s-4.5,10-10,10c-3.4,0-4.5,0.9-7.4,3C790.3,719.9,784.6,724.1,774.6,724.1z"/>
			</g>
			<g>
				<path fill="#00BEC5" d="M772.6,743.1c-10,0-15.6-4.2-19.4-7c-2.8-2.1-4-3-7.4-3c-3.4,0-4.5,0.9-7.4,3c-3.7,2.8-9.4,7-19.4,7
					c-10,0-15.6-4.2-19.4-7c-2.8-2.1-4-3-7.4-3c-3.4,0-4.5,0.9-7.4,3c-3.7,2.8-9.4,7-19.4,7c-10,0-15.6-4.2-19.4-7
					c-2.8-2.1-4-3-7.4-3c-3.4,0-4.5,0.9-7.4,3c-3.7,2.8-9.4,7-19.4,7c-10,0-15.6-4.2-19.4-7c-2.8-2.1-4-3-7.4-3
					c-3.4,0-4.5,0.9-7.4,3c-3.7,2.8-9.4,7-19.4,7c-10,0-15.6-4.2-19.4-7c-2.8-2.1-4-3-7.4-3c-3.4,0-4.5,0.9-7.4,3
					c-3.7,2.8-9.4,7-19.4,7c-10,0-15.6-4.2-19.4-7c-2.8-2.1-4-3-7.4-3c-3.4,0-4.5,0.9-7.4,3c-3.7,2.8-9.4,7-19.4,7
					c-10,0-15.6-4.2-19.4-7c-2.8-2.1-4-3-7.4-3c-3.4,0-4.5,0.9-7.4,3c-3.7,2.8-9.4,7-19.4,7s-15.6-4.2-19.4-7c-2.8-2.1-4-3-7.4-3
					c-3.4,0-4.5,0.9-7.4,3c-3.7,2.8-9.4,7-19.4,7c-10,0-15.6-4.2-19.4-7c-2.8-2.1-4-3-7.4-3c-3.4,0-4.5,0.9-7.4,3
					c-3.7,2.8-9.4,7-19.4,7c-10,0-15.6-4.2-19.4-7c-2.8-2.1-4-3-7.4-3c-3.4,0-4.5,0.9-7.4,3c-3.7,2.8-9.4,7-19.4,7
					c-10,0-15.6-4.2-19.4-7c-2.8-2.1-4-3-7.4-3c-3.4,0-4.5,0.9-7.4,3c-3.7,2.8-9.4,7-19.4,7c-10,0-15.6-4.2-19.4-7
					c-2.8-2.1-4-3-7.4-3c-3.4,0-4.5,0.9-7.4,3c-3.7,2.8-9.4,7-19.4,7c-10,0-15.6-4.2-19.4-7c-2.8-2.1-4-3-7.4-3
					c-3.4,0-4.5,0.9-7.4,3c-3.7,2.8-9.4,7-19.4,7c-10,0-15.6-4.2-19.4-7c-2.8-2.1-4-3-7.4-3c-3.4,0-4.5,0.9-7.4,3
					c-3.7,2.8-9.4,7-19.4,7c-10,0-15.6-4.2-19.4-7c-2.8-2.1-4-3-7.4-3c-5.5,0-10-4.5-10-10s4.5-10,10-10c10,0,15.6,4.2,19.4,7
					c2.8,2.1,4,3,7.4,3c3.4,0,4.5-0.9,7.4-3c3.7-2.8,9.4-7,19.4-7c10,0,15.6,4.2,19.4,7c2.8,2.1,4,3,7.4,3c3.4,0,4.5-0.9,7.4-3
					c3.7-2.8,9.4-7,19.4-7c10,0,15.6,4.2,19.4,7c2.8,2.1,4,3,7.4,3c3.4,0,4.5-0.9,7.4-3c3.7-2.8,9.4-7,19.4-7c10,0,15.6,4.2,19.4,7
					c2.8,2.1,4,3,7.4,3c3.4,0,4.5-0.9,7.4-3c3.7-2.8,9.4-7,19.4-7c10,0,15.6,4.2,19.4,7c2.8,2.1,4,3,7.4,3c3.4,0,4.5-0.9,7.4-3
					c3.7-2.8,9.4-7,19.4-7c10,0,15.6,4.2,19.4,7c2.8,2.1,4,3,7.4,3c3.4,0,4.5-0.9,7.4-3c3.7-2.8,9.4-7,19.4-7c10,0,15.6,4.2,19.4,7
					c2.8,2.1,4,3,7.4,3c3.4,0,4.5-0.9,7.4-3c3.7-2.8,9.4-7,19.4-7c10,0,15.6,4.2,19.4,7c2.8,2.1,4,3,7.4,3c3.4,0,4.5-0.9,7.4-3
					c3.7-2.8,9.4-7,19.4-7c10,0,15.6,4.2,19.4,7c2.8,2.1,4,3,7.4,3c3.4,0,4.5-0.9,7.4-3c3.7-2.8,9.4-7,19.4-7c10,0,15.6,4.2,19.4,7
					c2.8,2.1,4,3,7.4,3c3.4,0,4.5-0.9,7.4-3c3.7-2.8,9.4-7,19.4-7c10,0,15.6,4.2,19.4,7c2.8,2.1,4,3,7.4,3c3.4,0,4.5-0.9,7.4-3
					c3.7-2.8,9.4-7,19.4-7c10,0,15.6,4.2,19.4,7c2.8,2.1,4,3,7.4,3c3.4,0,4.5-0.9,7.4-3c3.7-2.8,9.4-7,19.4-7c10,0,15.6,4.2,19.4,7
					c2.8,2.1,4,3,7.4,3c3.4,0,4.5-0.9,7.4-3c3.7-2.8,9.4-7,19.4-7c10,0,15.6,4.2,19.4,7c2.8,2.1,4,3,7.4,3c3.4,0,4.5-0.9,7.4-3
					c3.7-2.8,9.4-7,19.4-7c10,0,15.6,4.2,19.4,7c2.8,2.1,4,3,7.4,3c3.4,0,4.5-0.9,7.4-3c3.7-2.8,9.4-7,19.4-7c5.5,0,10,4.5,10,10
					s-4.5,10-10,10c-3.4,0-4.5,0.9-7.4,3C788.3,738.9,782.6,743.1,772.6,743.1z"/>
			</g>
			<g>
				<path fill="#69E2DE" d="M774.6,760.9c-10,0-15.6-4.2-19.4-7c-2.8-2.1-4-3-7.4-3c-3.4,0-4.5,0.9-7.4,3c-3.7,2.8-9.4,7-19.4,7
					c-10,0-15.6-4.2-19.4-7c-2.8-2.1-4-3-7.4-3c-3.4,0-4.5,0.9-7.4,3c-3.7,2.8-9.4,7-19.4,7c-10,0-15.6-4.2-19.4-7
					c-2.8-2.1-4-3-7.4-3c-3.4,0-4.5,0.9-7.4,3c-3.7,2.8-9.4,7-19.4,7c-10,0-15.6-4.2-19.4-7c-2.8-2.1-4-3-7.4-3
					c-3.4,0-4.5,0.9-7.4,3c-3.7,2.8-9.4,7-19.4,7c-10,0-15.6-4.2-19.4-7c-2.8-2.1-4-3-7.4-3c-3.4,0-4.5,0.9-7.4,3
					c-3.7,2.8-9.4,7-19.4,7c-10,0-15.6-4.2-19.4-7c-2.8-2.1-4-3-7.4-3c-3.4,0-4.5,0.9-7.4,3c-3.7,2.8-9.4,7-19.4,7
					c-10,0-15.6-4.2-19.4-7c-2.8-2.1-4-3-7.4-3c-3.4,0-4.5,0.9-7.4,3c-3.7,2.8-9.4,7-19.4,7s-15.6-4.2-19.4-7c-2.8-2.1-4-3-7.4-3
					c-3.4,0-4.5,0.9-7.4,3c-3.7,2.8-9.4,7-19.4,7c-10,0-15.6-4.2-19.4-7c-2.8-2.1-4-3-7.4-3c-3.4,0-4.5,0.9-7.4,3
					c-3.7,2.8-9.4,7-19.4,7c-10,0-15.6-4.2-19.4-7c-2.8-2.1-4-3-7.4-3c-3.4,0-4.5,0.9-7.4,3c-3.7,2.8-9.4,7-19.4,7
					c-10,0-15.6-4.2-19.4-7c-2.8-2.1-4-3-7.4-3c-3.4,0-4.5,0.9-7.4,3c-3.7,2.8-9.4,7-19.4,7c-10,0-15.6-4.2-19.4-7
					c-2.8-2.1-4-3-7.4-3c-3.4,0-4.5,0.9-7.4,3c-3.7,2.8-9.4,7-19.4,7c-10,0-15.6-4.2-19.4-7c-2.8-2.1-4-3-7.4-3
					c-3.4,0-4.5,0.9-7.4,3c-3.7,2.8-9.4,7-19.4,7c-10,0-15.6-4.2-19.4-7c-2.8-2.1-4-3-7.4-3c-3.4,0-4.5,0.9-7.4,3
					c-3.7,2.8-9.4,7-19.4,7c-10,0-15.6-4.2-19.4-7c-2.8-2.1-4-3-7.4-3c-5.5,0-10-4.5-10-10c0-5.5,4.5-10,10-10c10,0,15.6,4.2,19.4,7
					c2.8,2.1,4,3,7.4,3c3.4,0,4.5-0.9,7.4-3c3.7-2.8,9.4-7,19.4-7c10,0,15.6,4.2,19.4,7c2.8,2.1,4,3,7.4,3c3.4,0,4.5-0.9,7.4-3
					c3.7-2.8,9.4-7,19.4-7c10,0,15.6,4.2,19.4,7c2.8,2.1,4,3,7.4,3c3.4,0,4.5-0.9,7.4-3c3.7-2.8,9.4-7,19.4-7c10,0,15.6,4.2,19.4,7
					c2.8,2.1,4,3,7.4,3c3.4,0,4.5-0.9,7.4-3c3.7-2.8,9.4-7,19.4-7c10,0,15.6,4.2,19.4,7c2.8,2.1,4,3,7.4,3c3.4,0,4.5-0.9,7.4-3
					c3.7-2.8,9.4-7,19.4-7c10,0,15.6,4.2,19.4,7c2.8,2.1,4,3,7.4,3c3.4,0,4.5-0.9,7.4-3c3.7-2.8,9.4-7,19.4-7c10,0,15.6,4.2,19.4,7
					c2.8,2.1,4,3,7.4,3c3.4,0,4.5-0.9,7.4-3c3.7-2.8,9.4-7,19.4-7c10,0,15.6,4.2,19.4,7c2.8,2.1,4,3,7.4,3c3.4,0,4.5-0.9,7.4-3
					c3.7-2.8,9.4-7,19.4-7c10,0,15.6,4.2,19.4,7c2.8,2.1,4,3,7.4,3c3.4,0,4.5-0.9,7.4-3c3.7-2.8,9.4-7,19.4-7c10,0,15.6,4.2,19.4,7
					c2.8,2.1,4,3,7.4,3c3.4,0,4.5-0.9,7.4-3c3.7-2.8,9.4-7,19.4-7c10,0,15.6,4.2,19.4,7c2.8,2.1,4,3,7.4,3c3.4,0,4.5-0.9,7.4-3
					c3.7-2.8,9.4-7,19.4-7c10,0,15.6,4.2,19.4,7c2.8,2.1,4,3,7.4,3c3.4,0,4.5-0.9,7.4-3c3.7-2.8,9.4-7,19.4-7c10,0,15.6,4.2,19.4,7
					c2.8,2.1,4,3,7.4,3c3.4,0,4.5-0.9,7.4-3c3.7-2.8,9.4-7,19.4-7c10,0,15.6,4.2,19.4,7c2.8,2.1,4,3,7.4,3c3.4,0,4.5-0.9,7.4-3
					c3.7-2.8,9.4-7,19.4-7c10,0,15.6,4.2,19.4,7c2.8,2.1,4,3,7.4,3c3.4,0,4.5-0.9,7.4-3c3.7-2.8,9.4-7,19.4-7c5.5,0,10,4.5,10,10
					c0,5.5-4.5,10-10,10c-3.4,0-4.5,0.9-7.4,3C790.3,756.7,784.6,760.9,774.6,760.9z"/>
			</g>
			<g>
				<path fill="#00BEC5" d="M772.6,779.9c-10,0-15.6-4.2-19.4-7c-2.8-2.1-4-3-7.4-3c-3.4,0-4.5,0.9-7.4,3c-3.7,2.8-9.4,7-19.4,7
					c-10,0-15.6-4.2-19.4-7c-2.8-2.1-4-3-7.4-3c-3.4,0-4.5,0.9-7.4,3c-3.7,2.8-9.4,7-19.4,7c-10,0-15.6-4.2-19.4-7
					c-2.8-2.1-4-3-7.4-3c-3.4,0-4.5,0.9-7.4,3c-3.7,2.8-9.4,7-19.4,7c-10,0-15.6-4.2-19.4-7c-2.8-2.1-4-3-7.4-3
					c-3.4,0-4.5,0.9-7.4,3c-3.7,2.8-9.4,7-19.4,7c-10,0-15.6-4.2-19.4-7c-2.8-2.1-4-3-7.4-3c-3.4,0-4.5,0.9-7.4,3
					c-3.7,2.8-9.4,7-19.4,7c-10,0-15.6-4.2-19.4-7c-2.8-2.1-4-3-7.4-3c-3.4,0-4.5,0.9-7.4,3c-3.7,2.8-9.4,7-19.4,7
					c-10,0-15.6-4.2-19.4-7c-2.8-2.1-4-3-7.4-3c-3.4,0-4.5,0.9-7.4,3c-3.7,2.8-9.4,7-19.4,7s-15.6-4.2-19.4-7c-2.8-2.1-4-3-7.4-3
					c-3.4,0-4.5,0.9-7.4,3c-3.7,2.8-9.4,7-19.4,7c-10,0-15.6-4.2-19.4-7c-2.8-2.1-4-3-7.4-3c-3.4,0-4.5,0.9-7.4,3
					c-3.7,2.8-9.4,7-19.4,7c-10,0-15.6-4.2-19.4-7c-2.8-2.1-4-3-7.4-3c-3.4,0-4.5,0.9-7.4,3c-3.7,2.8-9.4,7-19.4,7
					c-10,0-15.6-4.2-19.4-7c-2.8-2.1-4-3-7.4-3c-3.4,0-4.5,0.9-7.4,3c-3.7,2.8-9.4,7-19.4,7c-10,0-15.6-4.2-19.4-7
					c-2.8-2.1-4-3-7.4-3c-3.4,0-4.5,0.9-7.4,3c-3.7,2.8-9.4,7-19.4,7c-10,0-15.6-4.2-19.4-7c-2.8-2.1-4-3-7.4-3
					c-3.4,0-4.5,0.9-7.4,3c-3.7,2.8-9.4,7-19.4,7c-10,0-15.6-4.2-19.4-7c-2.8-2.1-4-3-7.4-3c-3.4,0-4.5,0.9-7.4,3
					c-3.7,2.8-9.4,7-19.4,7c-10,0-15.6-4.2-19.4-7c-2.8-2.1-4-3-7.4-3c-5.5,0-10-4.5-10-10c0-5.5,4.5-10,10-10c10,0,15.6,4.2,19.4,7
					c2.8,2.1,4,3,7.4,3c3.4,0,4.5-0.9,7.4-3c3.7-2.8,9.4-7,19.4-7c10,0,15.6,4.2,19.4,7c2.8,2.1,4,3,7.4,3c3.4,0,4.5-0.9,7.4-3
					c3.7-2.8,9.4-7,19.4-7c10,0,15.6,4.2,19.4,7c2.8,2.1,4,3,7.4,3c3.4,0,4.5-0.9,7.4-3c3.7-2.8,9.4-7,19.4-7c10,0,15.6,4.2,19.4,7
					c2.8,2.1,4,3,7.4,3c3.4,0,4.5-0.9,7.4-3c3.7-2.8,9.4-7,19.4-7c10,0,15.6,4.2,19.4,7c2.8,2.1,4,3,7.4,3c3.4,0,4.5-0.9,7.4-3
					c3.7-2.8,9.4-7,19.4-7c10,0,15.6,4.2,19.4,7c2.8,2.1,4,3,7.4,3c3.4,0,4.5-0.9,7.4-3c3.7-2.8,9.4-7,19.4-7c10,0,15.6,4.2,19.4,7
					c2.8,2.1,4,3,7.4,3c3.4,0,4.5-0.9,7.4-3c3.7-2.8,9.4-7,19.4-7c10,0,15.6,4.2,19.4,7c2.8,2.1,4,3,7.4,3c3.4,0,4.5-0.9,7.4-3
					c3.7-2.8,9.4-7,19.4-7c10,0,15.6,4.2,19.4,7c2.8,2.1,4,3,7.4,3c3.4,0,4.5-0.9,7.4-3c3.7-2.8,9.4-7,19.4-7c10,0,15.6,4.2,19.4,7
					c2.8,2.1,4,3,7.4,3c3.4,0,4.5-0.9,7.4-3c3.7-2.8,9.4-7,19.4-7c10,0,15.6,4.2,19.4,7c2.8,2.1,4,3,7.4,3c3.4,0,4.5-0.9,7.4-3
					c3.7-2.8,9.4-7,19.4-7c10,0,15.6,4.2,19.4,7c2.8,2.1,4,3,7.4,3c3.4,0,4.5-0.9,7.4-3c3.7-2.8,9.4-7,19.4-7c10,0,15.6,4.2,19.4,7
					c2.8,2.1,4,3,7.4,3c3.4,0,4.5-0.9,7.4-3c3.7-2.8,9.4-7,19.4-7c10,0,15.6,4.2,19.4,7c2.8,2.1,4,3,7.4,3c3.4,0,4.5-0.9,7.4-3
					c3.7-2.8,9.4-7,19.4-7c10,0,15.6,4.2,19.4,7c2.8,2.1,4,3,7.4,3c3.4,0,4.5-0.9,7.4-3c3.7-2.8,9.4-7,19.4-7c5.5,0,10,4.5,10,10
					c0,5.5-4.5,10-10,10c-3.4,0-4.5,0.9-7.4,3C788.3,775.7,782.6,779.9,772.6,779.9z"/>
			</g>
			<g>
				<path fill="#69E2DE" d="M774.6,799.1c-10,0-15.6-4.2-19.4-7c-2.8-2.1-4-3-7.4-3c-3.4,0-4.5,0.9-7.4,3c-3.7,2.8-9.4,7-19.4,7
					c-10,0-15.6-4.2-19.4-7c-2.8-2.1-4-3-7.4-3c-3.4,0-4.5,0.9-7.4,3c-3.7,2.8-9.4,7-19.4,7c-10,0-15.6-4.2-19.4-7
					c-2.8-2.1-4-3-7.4-3c-3.4,0-4.5,0.9-7.4,3c-3.7,2.8-9.4,7-19.4,7c-10,0-15.6-4.2-19.4-7c-2.8-2.1-4-3-7.4-3
					c-3.4,0-4.5,0.9-7.4,3c-3.7,2.8-9.4,7-19.4,7c-10,0-15.6-4.2-19.4-7c-2.8-2.1-4-3-7.4-3c-3.4,0-4.5,0.9-7.4,3
					c-3.7,2.8-9.4,7-19.4,7c-10,0-15.6-4.2-19.4-7c-2.8-2.1-4-3-7.4-3c-3.4,0-4.5,0.9-7.4,3c-3.7,2.8-9.4,7-19.4,7
					c-10,0-15.6-4.2-19.4-7c-2.8-2.1-4-3-7.4-3c-3.4,0-4.5,0.9-7.4,3c-3.7,2.8-9.4,7-19.4,7s-15.6-4.2-19.4-7c-2.8-2.1-4-3-7.4-3
					c-3.4,0-4.5,0.9-7.4,3c-3.7,2.8-9.4,7-19.4,7c-10,0-15.6-4.2-19.4-7c-2.8-2.1-4-3-7.4-3c-3.4,0-4.5,0.9-7.4,3
					c-3.7,2.8-9.4,7-19.4,7c-10,0-15.6-4.2-19.4-7c-2.8-2.1-4-3-7.4-3c-3.4,0-4.5,0.9-7.4,3c-3.7,2.8-9.4,7-19.4,7
					c-10,0-15.6-4.2-19.4-7c-2.8-2.1-4-3-7.4-3c-3.4,0-4.5,0.9-7.4,3c-3.7,2.8-9.4,7-19.4,7c-10,0-15.6-4.2-19.4-7
					c-2.8-2.1-4-3-7.4-3c-3.4,0-4.5,0.9-7.4,3c-3.7,2.8-9.4,7-19.4,7c-10,0-15.6-4.2-19.4-7c-2.8-2.1-4-3-7.4-3
					c-3.4,0-4.5,0.9-7.4,3c-3.7,2.8-9.4,7-19.4,7c-10,0-15.6-4.2-19.4-7c-2.8-2.1-4-3-7.4-3c-3.4,0-4.5,0.9-7.4,3
					c-3.7,2.8-9.4,7-19.4,7c-10,0-15.6-4.2-19.4-7c-2.8-2.1-4-3-7.4-3c-5.5,0-10-4.5-10-10s4.5-10,10-10c10,0,15.6,4.2,19.4,7
					c2.8,2.1,4,3,7.4,3c3.4,0,4.5-0.9,7.4-3c3.7-2.8,9.4-7,19.4-7c10,0,15.6,4.2,19.4,7c2.8,2.1,4,3,7.4,3c3.4,0,4.5-0.9,7.4-3
					c3.7-2.8,9.4-7,19.4-7c10,0,15.6,4.2,19.4,7c2.8,2.1,4,3,7.4,3c3.4,0,4.5-0.9,7.4-3c3.7-2.8,9.4-7,19.4-7c10,0,15.6,4.2,19.4,7
					c2.8,2.1,4,3,7.4,3c3.4,0,4.5-0.9,7.4-3c3.7-2.8,9.4-7,19.4-7c10,0,15.6,4.2,19.4,7c2.8,2.1,4,3,7.4,3c3.4,0,4.5-0.9,7.4-3
					c3.7-2.8,9.4-7,19.4-7c10,0,15.6,4.2,19.4,7c2.8,2.1,4,3,7.4,3c3.4,0,4.5-0.9,7.4-3c3.7-2.8,9.4-7,19.4-7c10,0,15.6,4.2,19.4,7
					c2.8,2.1,4,3,7.4,3c3.4,0,4.5-0.9,7.4-3c3.7-2.8,9.4-7,19.4-7c10,0,15.6,4.2,19.4,7c2.8,2.1,4,3,7.4,3c3.4,0,4.5-0.9,7.4-3
					c3.7-2.8,9.4-7,19.4-7c10,0,15.6,4.2,19.4,7c2.8,2.1,4,3,7.4,3c3.4,0,4.5-0.9,7.4-3c3.7-2.8,9.4-7,19.4-7c10,0,15.6,4.2,19.4,7
					c2.8,2.1,4,3,7.4,3c3.4,0,4.5-0.9,7.4-3c3.7-2.8,9.4-7,19.4-7c10,0,15.6,4.2,19.4,7c2.8,2.1,4,3,7.4,3c3.4,0,4.5-0.9,7.4-3
					c3.7-2.8,9.4-7,19.4-7c10,0,15.6,4.2,19.4,7c2.8,2.1,4,3,7.4,3c3.4,0,4.5-0.9,7.4-3c3.7-2.8,9.4-7,19.4-7c10,0,15.6,4.2,19.4,7
					c2.8,2.1,4,3,7.4,3c3.4,0,4.5-0.9,7.4-3c3.7-2.8,9.4-7,19.4-7c10,0,15.6,4.2,19.4,7c2.8,2.1,4,3,7.4,3c3.4,0,4.5-0.9,7.4-3
					c3.7-2.8,9.4-7,19.4-7c10,0,15.6,4.2,19.4,7c2.8,2.1,4,3,7.4,3c3.4,0,4.5-0.9,7.4-3c3.7-2.8,9.4-7,19.4-7c5.5,0,10,4.5,10,10
					s-4.5,10-10,10c-3.4,0-4.5,0.9-7.4,3C790.3,794.9,784.6,799.1,774.6,799.1z"/>
			</g>
			<g>
				<path fill="#00BEC5" d="M772.6,818.1c-10,0-15.6-4.2-19.4-7c-2.8-2.1-4-3-7.4-3c-3.4,0-4.5,0.9-7.4,3c-3.7,2.8-9.4,7-19.4,7
					c-10,0-15.6-4.2-19.4-7c-2.8-2.1-4-3-7.4-3c-3.4,0-4.5,0.9-7.4,3c-3.7,2.8-9.4,7-19.4,7c-10,0-15.6-4.2-19.4-7
					c-2.8-2.1-4-3-7.4-3c-3.4,0-4.5,0.9-7.4,3c-3.7,2.8-9.4,7-19.4,7c-10,0-15.6-4.2-19.4-7c-2.8-2.1-4-3-7.4-3
					c-3.4,0-4.5,0.9-7.4,3c-3.7,2.8-9.4,7-19.4,7c-10,0-15.6-4.2-19.4-7c-2.8-2.1-4-3-7.4-3c-3.4,0-4.5,0.9-7.4,3
					c-3.7,2.8-9.4,7-19.4,7c-10,0-15.6-4.2-19.4-7c-2.8-2.1-4-3-7.4-3c-3.4,0-4.5,0.9-7.4,3c-3.7,2.8-9.4,7-19.4,7
					c-10,0-15.6-4.2-19.4-7c-2.8-2.1-4-3-7.4-3c-3.4,0-4.5,0.9-7.4,3c-3.7,2.8-9.4,7-19.4,7s-15.6-4.2-19.4-7c-2.8-2.1-4-3-7.4-3
					c-3.4,0-4.5,0.9-7.4,3c-3.7,2.8-9.4,7-19.4,7c-10,0-15.6-4.2-19.4-7c-2.8-2.1-4-3-7.4-3c-3.4,0-4.5,0.9-7.4,3
					c-3.7,2.8-9.4,7-19.4,7c-10,0-15.6-4.2-19.4-7c-2.8-2.1-4-3-7.4-3c-3.4,0-4.5,0.9-7.4,3c-3.7,2.8-9.4,7-19.4,7
					c-10,0-15.6-4.2-19.4-7c-2.8-2.1-4-3-7.4-3c-3.4,0-4.5,0.9-7.4,3c-3.7,2.8-9.4,7-19.4,7c-10,0-15.6-4.2-19.4-7
					c-2.8-2.1-4-3-7.4-3c-3.4,0-4.5,0.9-7.4,3c-3.7,2.8-9.4,7-19.4,7c-10,0-15.6-4.2-19.4-7c-2.8-2.1-4-3-7.4-3
					c-3.4,0-4.5,0.9-7.4,3c-3.7,2.8-9.4,7-19.4,7c-10,0-15.6-4.2-19.4-7c-2.8-2.1-4-3-7.4-3c-3.4,0-4.5,0.9-7.4,3
					c-3.7,2.8-9.4,7-19.4,7c-10,0-15.6-4.2-19.4-7c-2.8-2.1-4-3-7.4-3c-5.5,0-10-4.5-10-10s4.5-10,10-10c10,0,15.6,4.2,19.4,7
					c2.8,2.1,4,3,7.4,3c3.4,0,4.5-0.9,7.4-3c3.7-2.8,9.4-7,19.4-7c10,0,15.6,4.2,19.4,7c2.8,2.1,4,3,7.4,3c3.4,0,4.5-0.9,7.4-3
					c3.7-2.8,9.4-7,19.4-7c10,0,15.6,4.2,19.4,7c2.8,2.1,4,3,7.4,3c3.4,0,4.5-0.9,7.4-3c3.7-2.8,9.4-7,19.4-7c10,0,15.6,4.2,19.4,7
					c2.8,2.1,4,3,7.4,3c3.4,0,4.5-0.9,7.4-3c3.7-2.8,9.4-7,19.4-7c10,0,15.6,4.2,19.4,7c2.8,2.1,4,3,7.4,3c3.4,0,4.5-0.9,7.4-3
					c3.7-2.8,9.4-7,19.4-7c10,0,15.6,4.2,19.4,7c2.8,2.1,4,3,7.4,3c3.4,0,4.5-0.9,7.4-3c3.7-2.8,9.4-7,19.4-7c10,0,15.6,4.2,19.4,7
					c2.8,2.1,4,3,7.4,3c3.4,0,4.5-0.9,7.4-3c3.7-2.8,9.4-7,19.4-7c10,0,15.6,4.2,19.4,7c2.8,2.1,4,3,7.4,3c3.4,0,4.5-0.9,7.4-3
					c3.7-2.8,9.4-7,19.4-7c10,0,15.6,4.2,19.4,7c2.8,2.1,4,3,7.4,3c3.4,0,4.5-0.9,7.4-3c3.7-2.8,9.4-7,19.4-7c10,0,15.6,4.2,19.4,7
					c2.8,2.1,4,3,7.4,3c3.4,0,4.5-0.9,7.4-3c3.7-2.8,9.4-7,19.4-7c10,0,15.6,4.2,19.4,7c2.8,2.1,4,3,7.4,3c3.4,0,4.5-0.9,7.4-3
					c3.7-2.8,9.4-7,19.4-7c10,0,15.6,4.2,19.4,7c2.8,2.1,4,3,7.4,3c3.4,0,4.5-0.9,7.4-3c3.7-2.8,9.4-7,19.4-7c10,0,15.6,4.2,19.4,7
					c2.8,2.1,4,3,7.4,3c3.4,0,4.5-0.9,7.4-3c3.7-2.8,9.4-7,19.4-7c10,0,15.6,4.2,19.4,7c2.8,2.1,4,3,7.4,3c3.4,0,4.5-0.9,7.4-3
					c3.7-2.8,9.4-7,19.4-7c10,0,15.6,4.2,19.4,7c2.8,2.1,4,3,7.4,3c3.4,0,4.5-0.9,7.4-3c3.7-2.8,9.4-7,19.4-7c5.5,0,10,4.5,10,10
					s-4.5,10-10,10c-3.4,0-4.5,0.9-7.4,3C788.3,813.9,782.6,818.1,772.6,818.1z"/>
			</g>
		</g>
	</g>
</g>
</svg>
